The Big 4 - Live from Sofia Bulgaria - Disc 1 [BDRip-720p-Mkv-Eng-Ac3][Nautilus-BT]





General
Complete name                    : F:\The Big 4 - Live from Sofia Bulgaria - Disc 1 [BDRip-720p-Ac3][RiP By MaX].mkv
Format                           : Matroska
File size                        : 4.37 GiB
Duration                         : 3h 7mn
Overall bit rate                 : 3 346 Kbps
Encoded date                     : UTC 2010-12-01 12:10:05
Writing application              : mkvmerge v4.4.0 ('Die Wiederkehr') built on Oct 31 2010 21:52:48
Writing library                  : libebml v1.0.0 + libmatroska v1.0.0

Video
ID                               : 1
Format                           : AVC
Format/Info                      : Advanced Video Codec
Format profile                   : High@L4.1
Format settings, CABAC           : Yes
Format settings, ReFrames        : 5 frames
Muxing mode                      : Container profile=Unknown@4.1
Codec ID                         : V_MPEG4/ISO/AVC
Duration                         : 3h 7mn
Bit rate                         : 2 705 Kbps
Width                            : 1 280 pixels
Height                           : 714 pixels
Display aspect ratio             : 16:9
Frame rate                       : 23.976 fps
Color space                      : YUV
Chroma subsampling               : 4:2:0
Bit depth                        : 8 bits
Scan type                        : Progressive
Bits/(Pixel*Frame)               : 0.123
Stream size                      : 3.45 GiB (79%)
Title                            : The Big 4 - Live from Sofia Bulgaria - Disc 1 [BDRip 720p][RiP By MaX]
Writing library                  : x264 core 107 r1766 f9f0035
Encoding settings                : cabac=1 / ref=5 / deblock=1:1:0 / analyse=0x3:0x133 / me=hex / subme=7 / psy=1 / psy_rd=1.00:0.00 / mixed_ref=1 / me_range=16 / chroma_me=1 / trellis=1 / 8x8dct=1 / cqm=0 / deadzone=21,11 / fast_pskip=0 / chroma_qp_offset=-2 / threads=6 / sliced_threads=0 / nr=0 / decimate=1 / interlaced=0 / constrained_intra=0 / bframes=3 / b_pyramid=2 / b_adapt=2 / b_bias=0 / direct=3 / weightb=1 / open_gop=0 / weightp=1 / keyint=240 / keyint_min=23 / scenecut=40 / intra_refresh=0 / rc_lookahead=40 / rc=2pass / mbtree=1 / bitrate=2705 / ratetol=1.0 / qcomp=0.60 / qpmin=10 / qpmax=51 / qpstep=4 / cplxblur=20.0 / qblur=0.5 / ip_ratio=1.40 / aq=1:1.00
Language                         : Italian

Audio
ID                               : 2
Format                           : AC-3
Format/Info                      : Audio Coding 3
Mode extension                   : CM (complete main)
Codec ID                         : A_AC3
Duration                         : 3h 7mn
Bit rate mode                    : Constant
Bit rate                         : 640 Kbps
Channel(s)                       : 6 channels
Channel positions                : Front: L C R, Side: L R, LFE
Sampling rate                    : 48.0 KHz
Bit depth                        : 16 bits
Video delay                      : 2ms
Stream size                      : 856 MiB (19%)
Title                            : Eng Ac3 5.1

Menu
00:00:00.000                     : :01
00:00:30.130                     : :02
00:01:22.082                     : :03
00:07:14.334                     : :04
00:10:50.149                     : :05
00:15:13.045                     : :06
00:23:12.458                     : :07
00:29:47.452                     : :08
00:39:50.521                     : :09
00:46:02.393                     : :10
00:52:38.589                     : :11
00:55:34.131                     : :12
01:04:22.192                     : :13
01:05:21.584                     : :14
01:11:41.797                     : :15
01:16:45.634                     : :16
01:20:24.820                     : :17
01:23:56.899                     : :18
01:29:16.318                     : :19
01:32:27.342                     : :20
01:36:57.378                     : :21
01:41:35.056                     : :22
01:46:41.228                     : :23
01:51:31.752                     : :24
01:55:44.471                     : :25
02:05:49.842                     : :26
02:12:08.988                     : :27
02:16:27.312                     : :28
02:21:50.902                     : :29
02:25:00.659                     : :30
02:31:28.780                     : :31
02:37:03.247                     : :32
02:42:11.121                     : :33
02:47:24.134                     : :34
02:51:38.155                     : :35
02:57:28.905                     : :36
03:01:47.730                     : :37
